<?xml version="1.0" encoding="utf-8"?>
<!-- Generator: Adobe Illustrator 24.0.3, SVG Export Plug-In . SVG Version: 6.00 Build 0)  -->
<svg version="1.1" id="Слой_1" xmlns="http://www.w3.org/2000/svg" xmlns:xlink="http://www.w3.org/1999/xlink" x="0px" y="0px"
	 viewBox="0 0 199.9 50" style="enable-background:new 0 0 199.9 50;" xml:space="preserve">
<style type="text/css">
	.st0{fill:#5A9632;}
	.st1{display:none;}
	.st2{display:inline;fill:#404040;}
</style>
<g>
	<path class="st0" d="M57.4,35.5h-2.7v-1.9c-1.4,1.5-3,2.2-4.8,2.2c-2.2,0-4-0.7-5.4-2.2c-1.3-1.4-2-3.4-2-5.7
		c0-2.4,0.8-4.3,2.3-5.8s3.6-2.3,6-2.3c1.5,0,2.8,0.4,3.8,1.1v-7.2c0-1.1,0.9-2,2-2h0.8L57.4,35.5L57.4,35.5z M50.4,33.2
		c1.7,0,3.1-0.7,4.3-2v-7.6c-1.3-0.8-2.5-1.2-3.8-1.2c-1.6,0-2.9,0.5-4,1.5c-1,1-1.6,2.3-1.6,4c0,1.6,0.4,2.9,1.4,3.9
		C47.7,32.8,48.9,33.2,50.4,33.2 M62.5,33.6c-1.5-1.6-2.2-3.5-2.2-5.8s0.8-4.2,2.2-5.7c1.5-1.5,3.5-2.3,5.9-2.3s4.4,0.8,5.8,2.3
		c1.5,1.5,2.3,3.4,2.3,5.7s-0.8,4.2-2.3,5.8c-1.5,1.5-3.4,2.2-5.8,2.2S64,35.1,62.5,33.6 M63.2,27.9c0,1.6,0.5,2.9,1.4,3.9
		c1,1,2.2,1.5,3.8,1.5c1.5,0,2.8-0.5,3.8-1.5c1-1,1.5-2.3,1.5-3.9S73.2,25,72.2,24s-2.2-1.5-3.8-1.5c-1.5,0-2.8,0.5-3.8,1.5
		S63.2,26.3,63.2,27.9 M86.7,31.4c0-0.6-0.3-1-0.8-1.4s-1.2-0.7-2-0.9s-1.6-0.5-2.4-0.8s-1.5-0.8-2.1-1.5s-0.8-1.6-0.8-2.6
		c0-1.3,0.5-2.3,1.4-3.1c1-0.8,2.2-1.2,3.8-1.2c2.2,0,4,0.6,5.2,1.8l-1.3,2.1c-1.1-1-2.4-1.5-3.8-1.5c-0.7,0-1.3,0.2-1.8,0.6
		s-0.7,0.8-0.7,1.4s0.3,1.1,0.8,1.4c0.6,0.4,1.2,0.7,2,0.9s1.6,0.5,2.4,0.8s1.5,0.8,2.1,1.4s0.8,1.5,0.8,2.4c0,1.5-0.6,2.7-1.7,3.5
		s-2.5,1.2-4.2,1.2c-1.2,0-2.3-0.2-3.4-0.8c-1.1-0.5-1.8-1.1-2.2-1.6l1.5-2c0.4,0.5,1.1,1,2,1.4c0.9,0.4,1.7,0.6,2.4,0.6
		c0.8,0,1.4-0.2,2-0.6C86.5,32.6,86.7,32,86.7,31.4 M92,29.7V17.9c0-1.1,0.9-2,2-2h0.8v4.2h5.6v0.6c0,1.1-0.9,2-2,2h-3.6v6.7
		c0,2.6,0.9,3.8,2.7,3.8c0.9,0,1.7-0.3,2.4-0.8l0.8,2.1c-1,0.9-2.4,1.3-3.9,1.3c-1.6,0-2.8-0.5-3.6-1.5C92.4,33.3,92,31.8,92,29.7
		 M103.6,22.2l-0.3-1c1.5-0.9,3.2-1.4,5.1-1.4c2,0,3.5,0.5,4.5,1.5c0.9,1,1.4,2.6,1.4,4.7v9.4h-0.6c-1.1,0-2-0.9-2-2
		c-1.2,1.5-2.8,2.2-4.9,2.2c-1.4,0-2.5-0.4-3.4-1.3c-0.8-0.8-1.3-2-1.3-3.4c0-1.5,0.5-2.7,1.6-3.6c1-0.9,2.4-1.3,4.2-1.3
		c1.6,0,2.9,0.3,3.8,1c0-1.7-0.2-3-0.7-3.7c-0.5-0.8-1.4-1.1-2.7-1.1c-1,0-2,0.2-3.1,0.6C104.5,23.2,103.8,22.8,103.6,22.2
		 M107.7,33.3c1.5,0,2.8-0.6,3.9-2v-2c-1-0.7-2.1-1-3.4-1c-0.9,0-1.7,0.2-2.3,0.7c-0.6,0.4-0.9,1.1-0.9,1.8c0,0.8,0.2,1.4,0.7,1.8
		C106.2,33.1,106.8,33.3,107.7,33.3 M129.2,20.2h1.6l-6.7,15.5h-2L115,20.2h3.2l3.7,8.3c0.4,1,0.8,2.1,1.3,3.4
		c0.3-1.1,0.7-2.2,1.2-3.5l3-7C127.8,20.7,128.5,20.2,129.2,20.2 M135.4,35.5h-2.7V13.7c0-1.1,0.9-2,2-2h0.8v23.8H135.4z
		 M143.1,20.2h2.6l-6.5,7.1l7.3,8.2h-3.7l-6.9-8l5.7-6.6C142,20.5,142.5,20.2,143.1,20.2 M148.5,22.2l-0.3-1
		c1.5-0.9,3.2-1.4,5.1-1.4c2,0,3.5,0.5,4.5,1.5c0.9,1,1.4,2.6,1.4,4.7v9.4h-0.6c-1.1,0-2-0.9-2-2c-1.2,1.5-2.8,2.2-4.9,2.2
		c-1.4,0-2.5-0.4-3.4-1.3c-0.8-0.8-1.3-2-1.3-3.4c0-1.5,0.5-2.7,1.6-3.6c1-0.9,2.4-1.3,4.2-1.3c1.6,0,2.9,0.3,3.8,1
		c0-1.7-0.2-3-0.7-3.7c-0.5-0.8-1.4-1.1-2.7-1.1c-1,0-2,0.2-3.1,0.6C149.4,23.2,148.7,22.8,148.5,22.2 M152.6,33.3
		c1.5,0,2.8-0.6,3.9-2v-2c-1-0.7-2.1-1-3.4-1c-0.9,0-1.7,0.2-2.3,0.7c-0.6,0.4-0.9,1.1-0.9,1.8c0,0.8,0.2,1.4,0.7,1.8
		C151.1,33.1,151.8,33.3,152.6,33.3 M162.2,33.7c0-0.5,0.2-0.9,0.6-1.2c0.4-0.4,0.8-0.6,1.4-0.6c0.5,0,0.9,0.2,1.2,0.6
		c0.4,0.4,0.6,0.8,0.6,1.2c0,0.6-0.2,1-0.5,1.4c-0.3,0.4-0.8,0.6-1.3,0.6c-0.6,0-1-0.2-1.4-0.6C162.4,34.7,162.2,34.2,162.2,33.7
		 M169.1,34.1V13.7c0-1.1,0.9-2,2-2h0.8v10c0.6-0.6,1.3-1,2.2-1.3c0.9-0.3,1.7-0.5,2.6-0.5c2.2,0,4,0.7,5.3,2.2c1.3,1.4,2,3.3,2,5.6
		c0,2.5-0.8,4.5-2.3,6s-3.6,2.2-6.2,2.2C172.8,35.9,170.7,35.3,169.1,34.1 M176,22.4c-0.8,0-1.6,0.2-2.3,0.6
		c-0.8,0.4-1.4,0.8-1.8,1.4v7.9c1,0.7,2.2,1,3.6,1c1.6,0,2.9-0.5,3.9-1.5c1-1,1.5-2.3,1.5-4s-0.4-3-1.4-4
		C178.7,22.9,177.5,22.4,176,22.4 M191.4,35.5L184,20.2h2c0.8,0,1.5,0.4,1.8,1.2l3.9,8.6c0.1,0.2,0.4,0.9,0.9,2.3
		c0.2-0.8,0.4-1.5,0.7-2.4l3.5-9.7h3.1l-6.1,15.3c-0.6,1.4-0.7,2.1-1.5,3c-0.8,1-1.8,1.4-3,1.4c-1,0-2-0.3-2.9-1l0.9-2.1
		c0.7,0.4,1.3,0.5,1.7,0.5c0.6,0,1-0.2,1.5-0.6c0.1-0.1,0.2-0.3,0.3-0.4L191.4,35.5z"/>
	<g class="st1">
		<path class="st2" d="M45.7,45.8c-0.7-0.7-1.1-1.6-1.1-2.7c0-1.1,0.4-2,1.1-2.7c0.7-0.7,1.6-1.1,2.8-1.1s2.1,0.4,2.8,1.1
			s1.1,1.6,1.1,2.7c0,1.1-0.4,2-1.1,2.7s-1.6,1.1-2.8,1.1C47.4,46.9,46.4,46.6,45.7,45.8z M46,43.1c0,0.8,0.2,1.4,0.7,1.8
			c0.5,0.5,1.1,0.7,1.8,0.7s1.3-0.2,1.8-0.7S51,43.8,51,43s-0.2-1.4-0.7-1.8c-0.5-0.5-1.1-0.7-1.8-0.7s-1.3,0.2-1.8,0.7
			C46.2,41.8,46,42.4,46,43.1z"/>
		<path class="st2" d="M59.7,46.8v-3.1h-4v3.1h-1.3v-7.3h1.3v3h4v-3H61v7.3H59.7z"/>
		<path class="st2" d="M68.4,46.8v-6h-2.5L65.8,42c-0.1,0.8-0.2,1.5-0.3,2.1c-0.1,0.6-0.3,1-0.4,1.4c-0.2,0.4-0.4,0.6-0.6,0.8
			s-0.5,0.4-0.7,0.4c-0.2,0.1-0.5,0.1-0.8,0.1l-0.2-1.2c0.1,0,0.2,0,0.4,0c0.1,0,0.3-0.2,0.4-0.3c0.2-0.2,0.3-0.4,0.4-0.6
			s0.2-0.6,0.3-1.1c0.1-0.5,0.2-1,0.2-1.7l0.1-2.3h5v7.3L68.4,46.8L68.4,46.8z"/>
		<path class="st2" d="M72.6,41l-0.3-1c0.7-0.4,1.5-0.7,2.4-0.7c1,0,1.7,0.2,2.1,0.8c0.4,0.5,0.6,1.2,0.6,2.2v4.5h-1.2v-0.9
			c-0.6,0.7-1.3,1-2.3,1c-0.7,0-1.2-0.2-1.6-0.6s-0.6-1-0.6-1.6c0-0.7,0.2-1.3,0.8-1.7c0.5-0.4,1.2-0.6,2-0.6s1.4,0.2,1.8,0.5
			c0-0.8-0.1-1.4-0.3-1.7c-0.2-0.4-0.6-0.6-1.3-0.6C74,40.5,73.3,40.7,72.6,41z M74.4,45.7c0.7,0,1.3-0.3,1.9-0.9v-0.9
			c-0.4-0.3-1-0.5-1.6-0.5c-0.4,0-0.8,0.1-1.1,0.3c-0.3,0.2-0.4,0.5-0.4,0.9s0.1,0.6,0.4,0.8C73.7,45.6,74,45.7,74.4,45.7z"/>
		<path class="st2" d="M81.2,46.8h-1.3v-7.3h1.3v5.4l4.2-5.4h1.3v7.3h-1.3v-5.4L81.2,46.8z M80.9,35.8h1.2c0.1,0.8,0.5,1.3,1.2,1.3
			s1.1-0.4,1.2-1.3h1.2c0,0.6-0.2,1.2-0.6,1.6c-0.4,0.4-1,0.6-1.7,0.6c-0.8,0-1.4-0.2-1.8-0.6C81.2,37,80.9,36.4,80.9,35.8z"/>
		<path class="st2" d="M94.5,46.8v-3.1h-4v3.1h-1.3v-7.3h1.3v3h4v-3h1.3v7.3H94.5z"/>
		<path class="st2" d="M98,43v-1.2h3.8V43H98z"/>
		<path class="st2" d="M104.1,46.8v-7.3h4.6v1.2h-3.3v6.1C105.4,46.8,104.1,46.8,104.1,46.8z"/>
		<path class="st2" d="M111.6,46.8h-1.3v-7.3h1.3v5.4l4.2-5.4h1.3v7.3h-1.3v-5.4L111.6,46.8z"/>
		<path class="st2" d="M124.8,46.8v-6.1h-3.9v6.1h-1.3v-7.3h6.5v7.3H124.8z"/>
		<path class="st2" d="M134.3,45l0.4,1c-0.7,0.6-1.6,1-2.7,1c-1.2,0-2.1-0.4-2.8-1c-0.7-0.7-1-1.6-1-2.8c0-1.1,0.3-2,1-2.7
			s1.6-1.1,2.7-1.1c1,0,1.8,0.3,2.4,0.9c0.6,0.6,1,1.4,1,2.4c0,0.3,0,0.6-0.1,0.9h-5.6c0,0.7,0.3,1.2,0.8,1.6c0.4,0.4,1,0.6,1.8,0.6
			C133,45.7,133.8,45.5,134.3,45z M131.8,40.6c-0.6,0-1.2,0.2-1.6,0.6c-0.4,0.4-0.6,0.8-0.7,1.4h4.4c0-0.6-0.2-1.1-0.6-1.4
			C132.9,40.7,132.4,40.6,131.8,40.6z"/>
		<path class="st2" d="M137.2,50V39.5h1.3v0.8c0.2-0.3,0.6-0.6,1-0.7c0.4-0.2,0.9-0.3,1.4-0.3c1,0,1.8,0.4,2.4,1s0.9,1.6,0.9,2.6
			c0,1.1-0.4,2-1,2.8c-0.7,0.8-1.6,1.1-2.7,1.1c-0.8,0-1.5-0.2-2-0.5V50H137.2L137.2,50z M140.6,40.6c-0.8,0-1.6,0.3-2.1,1v3.6
			c0.6,0.4,1.2,0.6,1.9,0.6c0.8,0,1.4-0.2,1.8-0.8c0.4-0.5,0.7-1.1,0.7-1.9c0-0.8-0.2-1.4-0.6-1.8C141.9,40.7,141.4,40.6,140.6,40.6
			z"/>
		<path class="st2" d="M146.4,46.8v-7.3h1.2l2.8,3.6l2.6-3.6h1.2v7.3h-1.3v-5.3l-2.5,3.4l0,0l-2.6-3.4v5.3
			C147.7,46.8,146.4,46.8,146.4,46.8z"/>
		<path class="st2" d="M157.1,41l-0.3-1c0.7-0.4,1.5-0.7,2.4-0.7c1,0,1.7,0.2,2.1,0.8c0.4,0.5,0.6,1.2,0.6,2.2v4.5h-1.2v-0.9
			c-0.6,0.7-1.3,1-2.3,1c-0.7,0-1.2-0.2-1.6-0.6s-0.6-1-0.6-1.6c0-0.7,0.2-1.3,0.8-1.7s1.2-0.6,2-0.6s1.4,0.2,1.8,0.5
			c0-0.8-0.1-1.4-0.3-1.7c-0.2-0.4-0.6-0.6-1.3-0.6C158.4,40.5,157.8,40.7,157.1,41z M158.8,45.7c0.7,0,1.3-0.3,1.9-0.9v-0.9
			c-0.4-0.3-1-0.5-1.6-0.5c-0.4,0-0.8,0.1-1.1,0.3s-0.4,0.5-0.4,0.9s0.1,0.6,0.4,0.8C158.1,45.6,158.4,45.7,158.8,45.7z"/>
		<path class="st2" d="M164.3,50V39.5h1.3v0.8c0.2-0.3,0.6-0.6,1-0.7c0.4-0.2,0.9-0.3,1.4-0.3c1,0,1.8,0.4,2.4,1s0.9,1.6,0.9,2.6
			c0,1.1-0.4,2-1,2.8s-1.6,1.1-2.7,1.1c-0.8,0-1.5-0.2-2-0.5V50H164.3L164.3,50z M167.7,40.6c-0.8,0-1.6,0.3-2.1,1v3.6
			c0.6,0.4,1.2,0.6,1.9,0.6c0.8,0,1.4-0.2,1.8-0.8c0.4-0.5,0.7-1.1,0.7-1.9c0-0.8-0.2-1.4-0.6-1.8C169,40.7,168.4,40.6,167.7,40.6z"
			/>
		<path class="st2" d="M173.5,46.8v-7.3h1.3v7.3H173.5z M179.8,39.5l-3.2,3.5l3.5,3.8h-1.8l-3.2-3.7l3-3.6H179.8z"/>
		<path class="st2" d="M187,45l0.4,1c-0.7,0.6-1.6,1-2.7,1c-1.2,0-2.1-0.4-2.8-1c-0.7-0.7-1-1.6-1-2.8c0-1.1,0.3-2,1-2.7
			s1.6-1.1,2.7-1.1c1,0,1.8,0.3,2.4,0.9c0.6,0.6,1,1.4,1,2.4c0,0.3,0,0.6-0.1,0.9h-5.6c0,0.7,0.3,1.2,0.8,1.6c0.4,0.4,1,0.6,1.8,0.6
			C185.7,45.7,186.4,45.5,187,45z M184.5,40.6c-0.6,0-1.2,0.2-1.6,0.6c-0.4,0.4-0.6,0.8-0.7,1.4h4.4c0-0.6-0.2-1.1-0.6-1.4
			C185.6,40.7,185.1,40.6,184.5,40.6z"/>
		<path class="st2" d="M189.1,40.8v-1.3h6.6v1.3h-2.6v6h-1.3v-6H189.1z"/>
	</g>
	<g>
		<path class="st0" d="M34.6,9.6c0-2-1.6-3.5-3.6-3.5h-4.2V4.6c0-2.5-2-4.6-4.5-4.6h-9c-2.5,0-4.5,2-4.5,4.5v1.6H4.6
			C2.6,6.1,1,7.6,1,9.6L0,42.7c0,1,0.3,1.9,1,2.6c0.7,0.7,1.6,1.1,2.6,1.1H32c1,0,1.9-0.4,2.6-1.1s1-1.6,1-2.6L34.6,9.6z M11.5,4.5
			c0-1,0.8-1.8,1.8-1.8h9c1,0,1.8,0.8,1.8,1.8v1.6H11.5V4.5z M32.6,43.4c-0.2,0.2-0.4,0.3-0.6,0.3H3.6c-0.2,0-0.5-0.1-0.6-0.3
			c-0.2-0.2-0.2-0.4-0.2-0.6l1-33.1c0-0.5,0.4-0.9,0.9-0.9h4.2v0.3c0,0.8,0.6,1.4,1.4,1.4c0.8,0,1.4-0.6,1.4-1.4V8.8h12.6v0.3
			c0,0.8,0.6,1.4,1.4,1.4s1.4-0.6,1.4-1.4V8.8H31c0.5,0,0.9,0.4,0.9,0.9l1,33.1C32.9,43,32.8,43.3,32.6,43.4z"/>
		<path class="st0" d="M18.3,16.2c-3.2,0-5.7,1-7.5,3S8,23.7,8,26.7c0,3.2,1,5.7,2.9,7.6s4.5,2.8,7.8,2.8c2.6,0,4.8-0.6,6.5-1.9
			c0.6-0.4,0.8-1.2,0.6-1.8c-0.3-0.8-1.3-1.2-2.1-0.8c-1.3,0.7-2.8,1.1-4.7,1.1c-2,0-3.6-0.5-4.8-1.6c-1.2-1.1-2-2.6-2.1-4.4h14.4
			c0.6,0,1-0.4,1.1-1c0-0.4,0.1-0.9,0.1-1.4c0-2.7-0.9-4.9-2.6-6.6C23.1,17.1,20.9,16.2,18.3,16.2z M11.8,24.9
			c0.2-1.6,0.9-2.9,2-3.8c1.1-1,2.6-1.5,4.4-1.5c1.7,0,3.1,0.5,4.1,1.4c1,1,1.6,2.3,1.7,3.9H11.8L11.8,24.9z"/>
	</g>
</g>
</svg>
