<?xml version="1.0" encoding="utf-8"?>
<!-- Generator: Adobe Illustrator 24.0.3, SVG Export Plug-In . SVG Version: 6.00 Build 0)  -->
<svg version="1.1" id="Слой_1" xmlns="http://www.w3.org/2000/svg" xmlns:xlink="http://www.w3.org/1999/xlink" x="0px" y="0px"
	 viewBox="0 0 515.9 176.9" style="enable-background:new 0 0 515.9 176.9;" xml:space="preserve">
<style type="text/css">
	.st0{fill:#9CCFF2;}
	.st1{fill:#212126;}
	.st2{fill:#0099DE;}
</style>
<g id="Слой_x0020_1">
	<g id="_1986628742400">
		<polygon class="st0" points="90.3,0.4 90.3,176.6 90.3,177 89.7,177 87.2,177 86.7,177 86.7,176.6 86.7,0.4 86.7,0 87.2,0 89.7,0 
			90.3,0 		"/>
		<polygon class="st0" points="176.6,90.3 0.3,90.3 0.1,90.3 0.1,89.8 0.1,87.1 0.1,86.7 0.3,86.7 176.6,86.7 176.8,86.7 
			176.8,87.1 176.8,89.8 176.8,90.3 		"/>
		<path class="st0" d="M41.4,90.7l-0.8-0.3c0-1.2,0-2.4,0-3.6l110.6-36.7c0.7,1.1,1.2,2,1.9,3.2L46.7,88.5l105.7,36.2
			c-0.5,1.1-1.2,2.1-2,3.2L41.4,90.7L41.4,90.7z"/>
		<path class="st0" d="M35.7,2.4c0.5,0,0.9,0.3,1.3,0.5l0,0c0.4,0.4,0.5,0.8,0.5,1.3S37.2,5.1,37,5.5l0,0C36.6,5.9,36.2,6,35.7,6
			s-0.9-0.3-1.3-0.5l0,0c-0.4-0.4-0.5-0.8-0.5-1.3s0.3-0.9,0.5-1.3C34.8,2.5,35.2,2.4,35.7,2.4L35.7,2.4z M27.9,33.1
			c0-0.5,0.3-0.9,0.5-1.3l0,0c0.4-0.4,0.8-0.5,1.3-0.5s0.9,0.3,1.3,0.5l0,0c0.4,0.4,0.5,0.8,0.5,1.3S31.2,34,31,34.4l0,0
			c-0.4,0.4-0.8,0.5-1.3,0.5s-0.9-0.3-1.3-0.5l0,0C28,34.2,27.9,33.7,27.9,33.1z M22.1,33.1c0-0.5,0.3-0.9,0.5-1.3l0,0
			c0.4-0.4,0.8-0.5,1.3-0.5s0.9,0.3,1.3,0.5l0,0c0.4,0.4,0.5,0.8,0.5,1.3s-0.3,0.9-0.5,1.3l0,0C24.9,34.9,24.5,35,24,35
			s-0.9-0.3-1.3-0.5l0,0C22.2,34.2,22.1,33.7,22.1,33.1z M16.4,33.1c0-0.5,0.3-0.9,0.5-1.3l0,0c0.4-0.4,0.8-0.5,1.3-0.5
			s0.9,0.3,1.3,0.5l0,0c0.4,0.4,0.5,0.8,0.5,1.3s-0.3,0.9-0.5,1.3l0,0c-0.4,0.4-0.8,0.5-1.3,0.5s-0.9-0.3-1.3-0.5l0,0
			C16.6,34.2,16.4,33.7,16.4,33.1z M10.8,33.1c0-0.5,0.3-0.9,0.5-1.3l0,0c0.4-0.4,0.8-0.5,1.3-0.5s0.9,0.3,1.3,0.5l0,0
			c0.4,0.4,0.5,0.8,0.5,1.3s-0.3,0.9-0.5,1.3l0,0c-0.4,0.4-0.8,0.5-1.3,0.5s-0.9-0.3-1.3-0.5l0,0C10.9,34.2,10.8,33.7,10.8,33.1z
			 M5,33.1c0-0.5,0.3-0.9,0.5-1.3l0,0c0.4-0.4,0.8-0.5,1.3-0.5s0.9,0.3,1.3,0.5l0,0c0.4,0.4,0.5,0.8,0.5,1.3S8.3,34,8.1,34.4l0,0
			C7.8,34.9,7.4,35,6.9,35S6,34.7,5.6,34.5l0,0C5.1,34.2,5,33.7,5,33.1z M35.7,25.3c0.5,0,0.9,0.3,1.3,0.5l0,0
			c0.4,0.4,0.5,0.8,0.5,1.3S37.2,28,37,28.4l0,0c-0.4,0.4-0.8,0.5-1.3,0.5s-0.9-0.3-1.3-0.5l0,0c-0.4-0.4-0.5-0.8-0.5-1.3
			s0.3-0.9,0.5-1.3l0,0C34.8,25.4,35.2,25.3,35.7,25.3L35.7,25.3z M35.7,19.5c0.5,0,0.9,0.3,1.3,0.5l0,0c0.4,0.4,0.5,0.8,0.5,1.3
			s-0.3,0.9-0.5,1.3l0,0c-0.4,0.4-0.8,0.5-1.3,0.5s-0.9-0.3-1.3-0.5l0,0c-0.4-0.4-0.5-0.8-0.5-1.3s0.3-0.9,0.5-1.3l0,0
			C34.8,19.8,35.2,19.5,35.7,19.5L35.7,19.5z M35.7,13.8c0.5,0,0.9,0.3,1.3,0.5l0,0c0.4,0.4,0.5,0.8,0.5,1.3c0,0.5-0.3,0.9-0.5,1.3
			l0,0c-0.4,0.4-0.8,0.5-1.3,0.5s-0.9-0.3-1.3-0.5l0,0c-0.4-0.4-0.5-0.8-0.5-1.3c0-0.5,0.3-0.9,0.5-1.3C34.8,14,35.2,13.8,35.7,13.8
			L35.7,13.8z M35.7,8.2c0.5,0,0.9,0.3,1.3,0.5l0,0c0.4,0.4,0.5,0.8,0.5,1.3s-0.3,0.9-0.5,1.3l0,0c-0.4,0.4-0.8,0.5-1.3,0.5
			s-0.9-0.3-1.3-0.5l0,0C34,11,33.9,10.6,33.9,10c0-0.6,0.3-0.9,0.5-1.3l0,0C34.8,8.3,35.2,8.2,35.7,8.2L35.7,8.2z"/>
		<path class="st0" d="M35.7,175c0.5,0,0.9-0.3,1.3-0.5l0,0c0.4-0.4,0.5-0.8,0.5-1.3s-0.3-0.9-0.5-1.3l0,0c-0.4-0.4-0.8-0.5-1.3-0.5
			s-0.9,0.3-1.3,0.5l0,0c-0.4,0.4-0.5,0.8-0.5,1.3s0.3,0.9,0.5,1.3C34.8,174.9,35.2,175,35.7,175L35.7,175z M27.9,144.3
			c0,0.5,0.3,0.9,0.5,1.3l0,0c0.4,0.4,0.8,0.5,1.3,0.5s0.9-0.3,1.3-0.5l0,0c0.4-0.4,0.5-0.8,0.5-1.3s-0.3-0.9-0.5-1.3l0,0
			c-0.4-0.4-0.8-0.5-1.3-0.5s-0.9,0.3-1.3,0.5l0,0C28,143.3,27.9,143.7,27.9,144.3z M22.1,144.3c0,0.5,0.3,0.9,0.5,1.3l0,0
			c0.4,0.4,0.8,0.5,1.3,0.5s0.9-0.3,1.3-0.5l0,0c0.4-0.4,0.5-0.8,0.5-1.3s-0.3-0.9-0.5-1.3l0,0c-0.4-0.4-0.8-0.5-1.3-0.5
			s-0.9,0.3-1.3,0.5l0,0C22.2,143.3,22.1,143.7,22.1,144.3z M16.4,144.3c0,0.5,0.3,0.9,0.5,1.3l0,0c0.4,0.4,0.8,0.5,1.3,0.5
			s0.9-0.3,1.3-0.5l0,0c0.4-0.4,0.5-0.8,0.5-1.3s-0.3-0.9-0.5-1.3l0,0c-0.4-0.4-0.8-0.5-1.3-0.5s-0.9,0.3-1.3,0.5l0,0
			C16.6,143.3,16.4,143.7,16.4,144.3z M10.8,144.3c0,0.5,0.3,0.9,0.5,1.3l0,0c0.4,0.4,0.8,0.5,1.3,0.5s0.9-0.3,1.3-0.5l0,0
			c0.4-0.4,0.5-0.8,0.5-1.3s-0.3-0.9-0.5-1.3l0,0c-0.4-0.4-0.8-0.5-1.3-0.5s-0.9,0.3-1.3,0.5l0,0C10.9,143.3,10.8,143.7,10.8,144.3z
			 M5,144.3c0,0.5,0.3,0.9,0.5,1.3l0,0c0.4,0.4,0.8,0.5,1.3,0.5s0.9-0.3,1.3-0.5l0,0c0.4-0.4,0.5-0.8,0.5-1.3s-0.3-0.9-0.5-1.3l0,0
			c-0.4-0.4-0.8-0.5-1.3-0.5s-0.9,0.3-1.3,0.5l0,0C5.1,143.3,5,143.7,5,144.3z M35.7,152.3c0.5,0,0.9-0.3,1.3-0.5l0,0
			c0.4-0.4,0.5-0.8,0.5-1.3s-0.3-0.9-0.5-1.3l0,0c-0.4-0.4-0.8-0.5-1.3-0.5s-0.9,0.3-1.3,0.5l0,0c-0.4,0.4-0.5,0.8-0.5,1.3
			s0.3,0.9,0.5,1.3l0,0C34.8,152,35.2,152.3,35.7,152.3L35.7,152.3z M35.7,157.9c0.5,0,0.9-0.3,1.3-0.5l0,0c0.4-0.4,0.5-0.8,0.5-1.3
			s-0.3-0.9-0.5-1.3l0,0c-0.4-0.4-0.8-0.5-1.3-0.5s-0.9,0.3-1.3,0.5l0,0c-0.4,0.4-0.5,0.8-0.5,1.3s0.3,0.9,0.5,1.3l0,0
			C34.8,157.8,35.2,157.9,35.7,157.9L35.7,157.9z M35.7,163.7c0.5,0,0.9-0.3,1.3-0.5l0,0c0.4-0.4,0.5-0.8,0.5-1.3s-0.3-0.9-0.5-1.3
			l0,0c-0.4-0.4-0.8-0.5-1.3-0.5s-0.9,0.3-1.3,0.5l0,0c-0.4,0.4-0.5,0.8-0.5,1.3s0.3,0.9,0.5,1.3C34.8,163.4,35.2,163.7,35.7,163.7
			L35.7,163.7z M35.7,169.4c0.5,0,0.9-0.3,1.3-0.5l0,0c0.4-0.4,0.5-0.8,0.5-1.3s-0.3-0.9-0.5-1.3l0,0c-0.4-0.4-0.8-0.5-1.3-0.5
			s-0.9,0.3-1.3,0.5l0,0c-0.4,0.4-0.5,0.8-0.5,1.3s0.3,0.9,0.5,1.3l0,0C34.8,169.1,35.2,169.4,35.7,169.4L35.7,169.4z"/>
		<path class="st0" d="M143.3,2.4c-0.5,0-0.9,0.3-1.3,0.5l0,0c-0.4,0.4-0.5,0.8-0.5,1.3s0.3,0.9,0.5,1.3l0,0
			c0.4,0.4,0.8,0.5,1.3,0.5s0.9-0.3,1.3-0.5l0,0c0.4-0.4,0.5-0.8,0.5-1.3s-0.3-0.9-0.5-1.3C144.2,2.5,143.8,2.4,143.3,2.4L143.3,2.4
			z M151.2,33.1c0-0.5-0.3-0.9-0.5-1.3l0,0c-0.4-0.4-0.8-0.5-1.3-0.5s-0.9,0.3-1.3,0.5l0,0c-0.4,0.4-0.5,0.8-0.5,1.3
			s0.3,0.9,0.5,1.3l0,0c0.4,0.4,0.8,0.5,1.3,0.5s0.9-0.3,1.3-0.5l0,0C151.1,34.2,151.2,33.7,151.2,33.1L151.2,33.1z M156.9,33.1
			c0-0.5-0.3-0.9-0.5-1.3l0,0c-0.4-0.4-0.8-0.5-1.3-0.5s-0.9,0.3-1.3,0.5l0,0c-0.4,0.4-0.5,0.8-0.5,1.3s0.3,0.9,0.5,1.3l0,0
			c0.4,0.4,0.8,0.5,1.3,0.5s0.9-0.3,1.3-0.5l0,0C156.8,34.2,156.9,33.7,156.9,33.1L156.9,33.1z M162.7,33.1c0-0.5-0.3-0.9-0.5-1.3
			l0,0c-0.4-0.4-0.8-0.5-1.3-0.5s-0.9,0.3-1.3,0.5l0,0c-0.4,0.4-0.5,0.8-0.5,1.3s0.3,0.9,0.5,1.3l0,0c0.4,0.4,0.8,0.5,1.3,0.5
			s0.9-0.3,1.3-0.5l0,0C162.4,34.2,162.7,33.7,162.7,33.1L162.7,33.1z M168.4,33.1c0-0.5-0.3-0.9-0.5-1.3l0,0
			c-0.4-0.4-0.8-0.5-1.3-0.5s-0.9,0.3-1.3,0.5l0,0c-0.4,0.4-0.5,0.8-0.5,1.3s0.3,0.9,0.5,1.3l0,0c0.4,0.4,0.8,0.5,1.3,0.5
			s0.9-0.3,1.3-0.5l0,0C168.2,34.2,168.4,33.7,168.4,33.1L168.4,33.1z M174,33.1c0-0.5-0.3-0.9-0.5-1.3l0,0
			c-0.4-0.4-0.8-0.5-1.3-0.5s-0.9,0.3-1.3,0.5l0,0c-0.4,0.4-0.5,0.8-0.5,1.3s0.3,0.9,0.5,1.3l0,0c0.4,0.4,0.8,0.5,1.3,0.5
			s0.9-0.3,1.3-0.5l0,0C173.9,34.2,174,33.7,174,33.1L174,33.1z M143.3,25.3c-0.5,0-0.9,0.3-1.3,0.5l0,0c-0.4,0.4-0.5,0.8-0.5,1.3
			s0.3,0.9,0.5,1.3l0,0c0.4,0.4,0.8,0.5,1.3,0.5s0.9-0.3,1.3-0.5l0,0c0.4-0.4,0.5-0.8,0.5-1.3s-0.3-0.9-0.5-1.3l0,0
			C144.2,25.4,143.8,25.3,143.3,25.3L143.3,25.3z M143.3,19.5c-0.5,0-0.9,0.3-1.3,0.5l0,0c-0.4,0.4-0.5,0.8-0.5,1.3s0.3,0.9,0.5,1.3
			l0,0c0.4,0.4,0.8,0.5,1.3,0.5s0.9-0.3,1.3-0.5l0,0c0.4-0.4,0.5-0.8,0.5-1.3s-0.3-0.9-0.5-1.3l0,0
			C144.2,19.8,143.8,19.5,143.3,19.5z M143.3,13.8c-0.5,0-0.9,0.3-1.3,0.5l0,0c-0.4,0.4-0.5,0.8-0.5,1.3c0,0.5,0.3,0.9,0.5,1.3l0,0
			c0.4,0.4,0.8,0.5,1.3,0.5s0.9-0.3,1.3-0.5l0,0c0.4-0.4,0.5-0.8,0.5-1.3c0-0.5-0.3-0.9-0.5-1.3C144.2,14,143.8,13.8,143.3,13.8
			L143.3,13.8z M143.3,8.2c-0.5,0-0.9,0.3-1.3,0.5l0,0c-0.4,0.4-0.5,0.8-0.5,1.3s0.3,0.9,0.5,1.3l0,0c0.4,0.4,0.8,0.5,1.3,0.5
			s0.9-0.3,1.3-0.5l0,0c0.4-0.4,0.5-0.8,0.5-1.3s-0.3-0.9-0.5-1.3l0,0C144.2,8.3,143.8,8.2,143.3,8.2z"/>
		<path class="st0" d="M143.3,175c-0.5,0-0.9-0.3-1.3-0.5l0,0c-0.4-0.4-0.5-0.8-0.5-1.3s0.3-0.9,0.5-1.3l0,0
			c0.4-0.4,0.8-0.5,1.3-0.5s0.9,0.3,1.3,0.5l0,0c0.4,0.4,0.5,0.8,0.5,1.3s-0.3,0.9-0.5,1.3C144.2,174.9,143.8,175,143.3,175z
			 M151.2,144.3c0,0.5-0.3,0.9-0.5,1.3l0,0c-0.4,0.4-0.8,0.5-1.3,0.5s-0.9-0.3-1.3-0.5l0,0c-0.4-0.4-0.5-0.8-0.5-1.3
			s0.3-0.9,0.5-1.3l0,0c0.4-0.4,0.8-0.5,1.3-0.5s0.9,0.3,1.3,0.5l0,0C151.1,143.3,151.2,143.7,151.2,144.3L151.2,144.3z
			 M156.9,144.3c0,0.5-0.3,0.9-0.5,1.3l0,0c-0.4,0.4-0.8,0.5-1.3,0.5s-0.9-0.3-1.3-0.5l0,0c-0.4-0.4-0.5-0.8-0.5-1.3
			s0.3-0.9,0.5-1.3l0,0c0.4-0.4,0.8-0.5,1.3-0.5s0.9,0.3,1.3,0.5l0,0C156.8,143.3,156.9,143.7,156.9,144.3L156.9,144.3z
			 M162.7,144.3c0,0.5-0.3,0.9-0.5,1.3l0,0c-0.4,0.4-0.8,0.5-1.3,0.5s-0.9-0.3-1.3-0.5l0,0c-0.4-0.4-0.5-0.8-0.5-1.3
			s0.3-0.9,0.5-1.3l0,0c0.4-0.4,0.8-0.5,1.3-0.5s0.9,0.3,1.3,0.5l0,0C162.4,143.3,162.7,143.7,162.7,144.3L162.7,144.3z
			 M168.4,144.3c0,0.5-0.3,0.9-0.5,1.3l0,0c-0.4,0.4-0.8,0.5-1.3,0.5s-0.9-0.3-1.3-0.5l0,0c-0.4-0.4-0.5-0.8-0.5-1.3
			s0.3-0.9,0.5-1.3l0,0c0.4-0.4,0.8-0.5,1.3-0.5s0.9,0.3,1.3,0.5l0,0C168.2,143.3,168.4,143.7,168.4,144.3L168.4,144.3z M174,144.3
			c0,0.5-0.3,0.9-0.5,1.3l0,0c-0.4,0.4-0.8,0.5-1.3,0.5s-0.9-0.3-1.3-0.5l0,0c-0.4-0.4-0.5-0.8-0.5-1.3s0.3-0.9,0.5-1.3l0,0
			c0.4-0.4,0.8-0.5,1.3-0.5s0.9,0.3,1.3,0.5l0,0C173.9,143.3,174,143.7,174,144.3L174,144.3z M143.3,152.3c-0.5,0-0.9-0.3-1.3-0.5
			l0,0c-0.4-0.4-0.5-0.8-0.5-1.3s0.3-0.9,0.5-1.3l0,0c0.4-0.4,0.8-0.5,1.3-0.5s0.9,0.3,1.3,0.5l0,0c0.4,0.4,0.5,0.8,0.5,1.3
			s-0.3,0.9-0.5,1.3l0,0C144.2,152,143.8,152.3,143.3,152.3L143.3,152.3z M143.3,157.9c-0.5,0-0.9-0.3-1.3-0.5l0,0
			c-0.4-0.4-0.5-0.8-0.5-1.3s0.3-0.9,0.5-1.3l0,0c0.4-0.4,0.8-0.5,1.3-0.5s0.9,0.3,1.3,0.5l0,0c0.4,0.4,0.5,0.8,0.5,1.3
			s-0.3,0.9-0.5,1.3l0,0C144.2,157.8,143.8,157.9,143.3,157.9L143.3,157.9z M143.3,163.7c-0.5,0-0.9-0.3-1.3-0.5l0,0
			c-0.4-0.4-0.5-0.8-0.5-1.3s0.3-0.9,0.5-1.3l0,0c0.4-0.4,0.8-0.5,1.3-0.5s0.9,0.3,1.3,0.5l0,0c0.4,0.4,0.5,0.8,0.5,1.3
			s-0.3,0.9-0.5,1.3C144.2,163.4,143.8,163.7,143.3,163.7L143.3,163.7z M143.3,169.4c-0.5,0-0.9-0.3-1.3-0.5l0,0
			c-0.4-0.4-0.5-0.8-0.5-1.3s0.3-0.9,0.5-1.3l0,0c0.4-0.4,0.8-0.5,1.3-0.5s0.9,0.3,1.3,0.5l0,0c0.4,0.4,0.5,0.8,0.5,1.3
			s-0.3,0.9-0.5,1.3l0,0C144.2,169.1,143.8,169.4,143.3,169.4z"/>
		<g>
			<path class="st1" d="M317.7,50.4c-21,0-38.1,17.1-38.1,38.1s17.1,38.1,38.1,38.1s38.1-17.1,38.1-38.1S338.8,50.4,317.7,50.4
				L317.7,50.4z M317.7,115.4c-14.8,0-26.9-12-26.9-26.9s12-26.9,26.9-26.9l0,0c14.8,0,26.9,12,26.9,26.9
				C344.5,103.4,332.5,115.4,317.7,115.4L317.7,115.4z"/>
		</g>
		<path class="st1" d="M486.8,51.8h-13.6l-29,73.1h13.2l7.2-19.4h30.5l6.9,19.4h13.8L486.8,51.8z M491.8,96H468l12.2-30.7L491.8,96
			L491.8,96z"/>
		<polygon class="st1" points="215.1,51.8 201.8,51.8 230.4,125 245.1,125 273.7,51.8 260.1,51.8 237.8,111.8 		"/>
		<polygon class="st1" points="434.2,51.8 418,51.8 385.7,85.1 385.7,51.8 373,51.8 373,125 385.7,125 385.7,100.6 396.1,90 
			420.2,125 436.1,125 405.1,81.1 		"/>
		<g>
			<path class="st2" d="M88.4,15c-40.6,0-73.5,32.9-73.5,73.5S47.8,162,88.4,162s73.5-32.9,73.5-73.5C162,47.8,129,15,88.4,15
				L88.4,15z M88.4,136.5c-26.5,0-48-21.5-48-48s21.5-48,48-48s48,21.5,48,48S114.8,136.5,88.4,136.5L88.4,136.5z"/>
		</g>
	</g>
</g>
</svg>
