<svg id="Layer_1" data-name="Layer 1" xmlns="http://www.w3.org/2000/svg" viewBox="0 0 1879 539"><title>tapston_white</title><g id="ffffff"><path d="M1622.3,118h90.5c-1.2,9.7-4,31.8-4.8,35.6,23.4-18.4,50.9-33.1,81-35.5,9.3,0,18.8-.7,28.1,1,16.3,2.4,32.3,10.1,42.6,23.3,8.6,10.9,13.3,24.4,15.4,38,.9,6.9,2.7,13.6,2.5,20.6.6,14.2-2.3,28.2-4.2,42.2-8.5,61.3-17.4,122.5-25.7,183.7-29.6.2-59.1.1-88.7,0,5.6-41,24.2-172.4,26-186,1.4-8.2.8-16.7-.3-24.9s-4.9-16-12.3-19.4c-9.1-4.4-19.6-3.7-29.3-2.1-16.2,3.2-29.6,13.5-42,23.7-2.1,2-5.3,3.5-5.3,6.8q-14.1,101-28.3,201.9c-29.5.3-59,.1-88.5.1C1584.6,385.9,1614.8,172.3,1622.3,118Z" fill="#fff"/><path d="M1438.5,118.6c20.1-1.9,40.8-.6,60,5.9a115.7,115.7,0,0,1,49.9,32.1,118.7,118.7,0,0,1,25.5,45.6c6.9,22.8,7.9,47.1,4.3,70.5-4.9,40.2-22.6,79.1-51.3,107.9-26.4,26.9-62.1,44.9-99.7,48.8-19.4,1.8-39.4.6-58-5.6s-38.1-17.6-51.8-33.1-22.2-32.7-27-51.8a165.2,165.2,0,0,1-2.5-64c4.9-38.3,21-75.5,47.5-103.7s63.9-48.4,103.2-52.7m3.7,70.7c-15.3,1.2-29.1,9.5-39.3,20.6-14.4,15.2-23.7,34.8-28.1,55.2-2.4,8.7-2.5,17.9-2.5,26.9,0,14.6,3.4,29.4,10.8,42.1s20.2,22.6,34.9,23.7c9.7.7,19.4-2.2,27.8-7,13.8-7.7,24.2-20.3,32-33.9,13.6-24.2,19.4-53.2,13.7-80.6-3-14-9.2-28-20.4-37.4A41.9,41.9,0,0,0,1442.2,189.3Z" fill="#fff"/><path d="M1164.4,40.1c24.5-.2,49,0,73.5-.1-3.4,26-7.3,52-10.8,78h71.6c-3.2,22.9-6.6,45.8-9.6,68.8-24,.5-48.1-.1-72.1.3-4.5,33.7-9.4,67.3-14.1,101-1.4,10.6-3.3,21.2-3.7,31.9s-.2,20.7,5.5,29.3c4.6,6.6,12.5,10.3,20.4,11,12.1,1.7,23.9-2.3,35.4-5.4,1.9,21.4,2.9,43,5,64.4-22.2,6.8-45.2,11.4-68.5,10.7s-44.8-3.9-62.1-17.9c-12.7-10.2-20.4-25.4-23.7-41.2a147.5,147.5,0,0,1-1.6-47q9.4-68.5,19.2-137c-13.7-.2-27.5.4-41.2-.3,3.3-21.4,6.1-42.9,9.2-64.4,11.7-1.5,23.5-1.8,35.2-3,4.1-.3,8.2-.2,12.2-1.2C1150.5,92,1158,66.2,1164.4,40.1Z" fill="#fff"/><path d="M912.3,131.2a148.3,148.3,0,0,1,47.9-12.6c21.8-1.9,44.1-.7,64.9,6.5s37.4,17.4,53.2,30.5c-18.4,15.6-36.3,31.9-54.6,47.5-1.2-.1-2.1-1.1-3.1-1.7-14.7-10.4-32.2-18.2-50.5-17.6-10,.1-20.9,1.8-28.5,8.8-5.6,5.5-8.6,14-6.5,21.7s9.7,11.9,16.4,15.4c12.4,6.2,25.7,10.4,38.5,15.6,15.9,6.2,31.8,13.7,44.6,25.3a64.4,64.4,0,0,1,19.5,30.8c4.3,15.2,2.8,31.4-1.3,46.5-6.4,23.6-22.1,44.1-42.3,57.8C986,422,956.2,429.4,927,430c-22.5,1.4-45.1-2.9-66.1-10.8-18.3-7-35.7-16.8-50.1-30.1,18.7-16.4,37.3-32.8,56.1-49.1,16.5,12.7,36.1,22.6,57.1,24.2,11.4.6,23.5.2,33.9-5a25.3,25.3,0,0,0,13.7-18,17.2,17.2,0,0,0-3.5-15c-4-5.2-9.8-8.6-15.4-11.8-18-9.3-37.7-14.8-55.5-24.5-15-8.2-29.4-18.8-38.3-33.7-6.7-10.7-9.5-23.5-9.3-36.1a99,99,0,0,1,17.9-52.5C878.8,151.6,894.6,139.2,912.3,131.2Z" fill="#fff"/><path d="M557.2,118.1c30.2-.2,60.4,0,90.6-.1-1.2,9.4-2.6,18.7-3.9,28.1,20.5-14.3,44-25.2,69-27.9,12.4-.5,25-.6,37.1,2.7a84.3,84.3,0,0,1,46,29c10.7,13.3,17.3,29.5,20.9,46,5.1,24,4.5,48.9,1.3,73.1-2.3,18.1-5.6,36.3-11.3,53.7-9.5,29.8-25.5,58.2-49.5,78.7a119.1,119.1,0,0,1-55.4,26.8c-10.6,2.3-21.4,2-32.1,1.7-21.4-1.9-41.5-11.4-58.2-24.7-4.9-3.8-9.1-8.3-13.9-12.2-2.5,12.8-22.7,132.7-25.3,146H498.2c3.3-21,52-368.6,59.1-420.9m80.3,94.4c-1.9,1.8-4.4,3.2-5.7,5.5-3.2,22-14.8,103.7-15.7,112.8,4.6,5.4,9.2,10.8,14.8,15.2a50.4,50.4,0,0,0,37.9,11.4,48.5,48.5,0,0,0,33.6-16.9c11.5-13.4,17-30.7,20.7-47.6a275,275,0,0,0,5.6-42c.2-10.3.3-20.8-2.4-30.8-2.1-8.4-6.3-16.7-13.3-22.1s-19.6-8.3-30-7.6C665.6,191.6,650.3,201.3,637.5,212.5Z" fill="#fff"/><path d="M279,156.9c40-22.4,84.8-38.9,131.1-39.1,11.7-.1,23.4.5,34.9,3,19.5,3.9,38.5,13.6,50.6,29.7s17.8,37.8,18.9,58.4a211.6,211.6,0,0,1-1.4,36.1q-13,92.4-25.8,184.9c-24.9.2-49.8.1-74.7,0,0-12.4.5-24.9.2-37.3-12.5,15.7-30.4,26.7-49.5,32.6-15.9,6.4-62.8,8.8-84.9-4.4a65.5,65.5,0,0,1-28.2-29c-5.8-11.3-8-24.1-8.2-36.8.3-19.6,5.1-39.6,16.1-56,12.4-18.8,31.5-32,51.8-41.1,33-14.7,69-21.1,104.8-25.5,3.9-.5,7.9-.5,11.8-1.8.3-9.6-.4-19.8-5.9-28s-14.1-11.8-22.9-13.2c-18.5-2.8-37.2,1.2-54.6,7.5-13.9,5-27.1,11.8-40.1,18.6-8.2-19.4-16-39.1-23.8-58.7m88.2,139.3c-12.8,4.8-25.9,11.7-33.2,23.8-4.4,7-5.5,15.7-4.5,23.8a33.5,33.5,0,0,0,17.9,22,39.8,39.8,0,0,0,24.7,3.3c21-3.5,39.5-21.7,41.1-43.2,2-13.8,3.9-27.5,5.6-41.3C401.2,286.8,383.8,290.2,367.2,296.2Z" fill="#fff"/><path d="M11.4,41.4c101.2.3,202.4,0,303.6.1-.1,2.1-.3,4.3-.5,6.4q-4.5,31.5-8.9,63c-.2,1.8-.3,3.6-.4,5.3a32.4,32.4,0,0,1-4.2.4H197.2Q174.9,273.8,153,430.9c-29.7.1-59.3,0-89,.1,2.1-19.6,32.1-229,43.8-314.2-35.8-.1-71.6.3-107.4-.2C3.6,95,10.2,44.8,11.4,41.4Z" fill="#fff"/></g></svg>